<?xml version="1.0" encoding="utf-8"?>
<!-- Generator: Adobe Illustrator 23.1.0, SVG Export Plug-In . SVG Version: 6.00 Build 0)  -->
<svg version="1.1" id="Layer_1_1_" xmlns="http://www.w3.org/2000/svg" xmlns:xlink="http://www.w3.org/1999/xlink" x="0px" y="0px"
	 width="600px" height="104px" viewBox="0 0 600 104" style="enable-background:new 0 0 600 104;" xml:space="preserve">
<g>
	<path d="M73.9,103.5H46.2V64H28.3v39.4H0V1.7h28.3v38h17.9v-38h27.7L73.9,103.5L73.9,103.5z M200.7,103.9
		c28.3,0,51.4-23.6,51.4-52.2C252.1,22.5,229,0,200.7,0C172,0,157.5,20.9,154,29.3c0-12.6-12.6-27.7-27.2-27.7H79.6v101.8h44
		c17.9,0,30.5-15.3,30.5-28.7C158,83.1,172,103.9,200.7,103.9L200.7,103.9z M120,62.6c4.1,0,7.4,4,7.4,8.5c0,4.8-3.3,8.7-7.4,8.7
		h-14V62.6H120L120,62.6z M120,24.4c4.1,0,7.4,4,7.4,8.5s-3.3,8.5-7.4,8.5h-14v-17L120,24.4L120,24.4z M138.6,51.7
		c3.3-0.2,8.6-4,10.7-6.2c-0.8,2.7-0.8,11.3,0,14C147,56.2,141.9,52.2,138.6,51.7L138.6,51.7z M174.9,51.7c0-14.3,11.6-25.9,26-25.8
		s25.9,11.8,25.7,26.2c-0.2,14.2-11.7,25.6-25.8,25.6C186.4,77.6,174.9,66.1,174.9,51.7L174.9,51.7z M200.7,72.1
		c11,0,20.3-9.1,20.3-20.4s-9.3-20.3-20.3-20.3c-11.3,0-20.4,9-20.4,20.3S189.4,72.1,200.7,72.1L200.7,72.1z"/>
	<g>
		<path d="M399.9,37.7C399.4,13.1,382,0,360.6,0c-11.8,0-22.3,3.9-29.5,11.6C323.8,3.9,313.3,0,301.5,0c-21.4,0-38.8,13.1-39.4,37.8
			c0,0.1,0,0.1,0,0.2v56.2c0,5.2,4.2,9.4,9.4,9.4h8.8c0.9,0,1.6-0.7,1.6-1.6V38l0,0c0.4-12.2,9-18.6,19.6-18.6s19.3,6.4,19.6,18.6
			l0,0v56.2c0,5.2,4.2,9.4,9.4,9.4h8.8c0.9,0,1.6-0.7,1.6-1.6V38l0,0c0.4-12.2,9-18.6,19.6-18.6s19.3,6.4,19.6,18.6l0,0v56.2
			c0,5.2,4.2,9.4,9.4,9.4h8.8c0.9,0,1.6-0.7,1.6-1.6V38C400,37.9,399.9,37.8,399.9,37.7z"/>
		<path d="M598.8,1.7h-15c-4.1,0-8,2.1-10.3,5.5l-16.6,24.6c-2.2,3.2-6.9,3.2-9,0L531.3,7.2c-2.3-3.4-6.2-5.5-10.3-5.5h-15
			c-0.9,0-1.5,1-1,1.8l29.6,43.9c2.1,3.2,2.1,7.3,0,10.5L505,101.7c-0.5,0.8,0,1.8,1,1.8h15c4.1,0,8-2.1,10.3-5.5l16.6-24.6
			c2.2-3.2,6.9-3.2,9,0L573.5,98c2.3,3.4,6.2,5.5,10.3,5.5h15c0.9,0,1.5-1,1-1.8l-29.6-43.9c-2.1-3.2-2.1-7.3,0-10.5l29.6-43.9
			C600.3,2.7,599.8,1.7,598.8,1.7z"/>
		<path d="M498.2,1.7h-8.8c-4.5,0-8.2,3.2-9.1,7.4c-7.9-6-17.7-9-28.4-9C425.9,0,405,18,405,52s21,52,46.8,52
			c10.6,0,20.4-3,28.2-8.9c0.4,4.8,4.4,8.5,9.3,8.5h8.8c0.9,0,1.6-0.7,1.6-1.6V3.2C499.7,2.4,499,1.7,498.2,1.7z M451.8,84.6
			c-15.4,0-28-11.3-28-32.6s12.5-32.6,28-32.6s28,11.3,28,32.6S467.3,84.6,451.8,84.6z"/>
	</g>
</g>
</svg>
